<svg width="242" height="245" viewBox="0 0 242 245" fill="none" xmlns="http://www.w3.org/2000/svg">
<ellipse cx="5.80392" cy="5.99273" rx="5.4902" ry="5.55273" fill="#21D8E3"/>
<ellipse cx="5.80392" cy="139.258" rx="5.4902" ry="5.55273" fill="#21D8E3"/>
<ellipse cx="5.80392" cy="72.6255" rx="5.4902" ry="5.55273" fill="#21D8E3"/>
<ellipse cx="5.80392" cy="205.891" rx="5.4902" ry="5.55273" fill="#21D8E3"/>
<ellipse cx="5.80392" cy="39.3091" rx="5.4902" ry="5.55273" fill="#21D8E3"/>
<ellipse cx="5.80392" cy="172.575" rx="5.4902" ry="5.55273" fill="#21D8E3"/>
<ellipse cx="5.80392" cy="105.942" rx="5.4902" ry="5.55273" fill="#21D8E3"/>
<ellipse cx="5.80392" cy="239.207" rx="5.4902" ry="5.55273" fill="#21D8E3"/>
<ellipse cx="137.569" cy="5.99273" rx="5.4902" ry="5.55273" fill="#21D8E3"/>
<ellipse cx="137.569" cy="139.258" rx="5.4902" ry="5.55273" fill="#21D8E3"/>
<ellipse cx="137.569" cy="72.6255" rx="5.4902" ry="5.55273" fill="#21D8E3"/>
<ellipse cx="137.569" cy="205.891" rx="5.4902" ry="5.55273" fill="#21D8E3"/>
<ellipse cx="137.569" cy="39.3091" rx="5.4902" ry="5.55273" fill="#21D8E3"/>
<ellipse cx="137.569" cy="172.575" rx="5.4902" ry="5.55273" fill="#21D8E3"/>
<ellipse cx="137.569" cy="105.942" rx="5.4902" ry="5.55273" fill="#21D8E3"/>
<ellipse cx="137.569" cy="239.207" rx="5.4902" ry="5.55273" fill="#21D8E3"/>
<ellipse cx="71.6863" cy="5.99273" rx="5.4902" ry="5.55273" fill="#21D8E3"/>
<ellipse cx="71.6863" cy="139.258" rx="5.4902" ry="5.55273" fill="#21D8E3"/>
<ellipse cx="71.6863" cy="72.6255" rx="5.4902" ry="5.55273" fill="#21D8E3"/>
<ellipse cx="71.6863" cy="205.891" rx="5.4902" ry="5.55273" fill="#21D8E3"/>
<ellipse cx="71.6863" cy="39.3091" rx="5.4902" ry="5.55273" fill="#21D8E3"/>
<ellipse cx="71.6863" cy="172.575" rx="5.4902" ry="5.55273" fill="#21D8E3"/>
<ellipse cx="71.6863" cy="105.942" rx="5.4902" ry="5.55273" fill="#21D8E3"/>
<ellipse cx="71.6863" cy="239.207" rx="5.4902" ry="5.55273" fill="#21D8E3"/>
<ellipse cx="203.451" cy="5.99273" rx="5.4902" ry="5.55273" fill="#21D8E3"/>
<ellipse cx="203.451" cy="139.258" rx="5.4902" ry="5.55273" fill="#21D8E3"/>
<ellipse cx="203.451" cy="72.6255" rx="5.4902" ry="5.55273" fill="#21D8E3"/>
<ellipse cx="203.451" cy="205.891" rx="5.4902" ry="5.55273" fill="#21D8E3"/>
<ellipse cx="203.451" cy="39.3091" rx="5.4902" ry="5.55273" fill="#21D8E3"/>
<ellipse cx="203.451" cy="172.575" rx="5.4902" ry="5.55273" fill="#21D8E3"/>
<ellipse cx="203.451" cy="105.942" rx="5.4902" ry="5.55273" fill="#21D8E3"/>
<ellipse cx="203.451" cy="239.207" rx="5.4902" ry="5.55273" fill="#21D8E3"/>
<ellipse cx="38.7451" cy="5.99273" rx="5.4902" ry="5.55273" fill="#21D8E3"/>
<ellipse cx="38.7451" cy="139.258" rx="5.4902" ry="5.55273" fill="#21D8E3"/>
<ellipse cx="38.7451" cy="72.6255" rx="5.4902" ry="5.55273" fill="#21D8E3"/>
<ellipse cx="38.7451" cy="205.891" rx="5.4902" ry="5.55273" fill="#21D8E3"/>
<ellipse cx="38.7451" cy="39.3091" rx="5.4902" ry="5.55273" fill="#21D8E3"/>
<ellipse cx="38.7451" cy="172.575" rx="5.4902" ry="5.55273" fill="#21D8E3"/>
<ellipse cx="38.7451" cy="105.942" rx="5.4902" ry="5.55273" fill="#21D8E3"/>
<ellipse cx="38.7451" cy="239.207" rx="5.4902" ry="5.55273" fill="#21D8E3"/>
<ellipse cx="170.51" cy="5.99273" rx="5.4902" ry="5.55273" fill="#21D8E3"/>
<ellipse cx="170.51" cy="139.258" rx="5.4902" ry="5.55273" fill="#21D8E3"/>
<ellipse cx="170.51" cy="72.6255" rx="5.4902" ry="5.55273" fill="#21D8E3"/>
<ellipse cx="170.51" cy="205.891" rx="5.4902" ry="5.55273" fill="#21D8E3"/>
<ellipse cx="170.51" cy="39.3091" rx="5.4902" ry="5.55273" fill="#21D8E3"/>
<ellipse cx="170.51" cy="172.575" rx="5.4902" ry="5.55273" fill="#21D8E3"/>
<ellipse cx="170.51" cy="105.942" rx="5.4902" ry="5.55273" fill="#21D8E3"/>
<ellipse cx="170.51" cy="239.207" rx="5.4902" ry="5.55273" fill="#21D8E3"/>
<ellipse cx="104.628" cy="5.99273" rx="5.4902" ry="5.55273" fill="#21D8E3"/>
<ellipse cx="104.628" cy="139.258" rx="5.4902" ry="5.55273" fill="#21D8E3"/>
<ellipse cx="104.628" cy="72.6255" rx="5.4902" ry="5.55273" fill="#21D8E3"/>
<ellipse cx="104.628" cy="205.891" rx="5.4902" ry="5.55273" fill="#21D8E3"/>
<ellipse cx="104.628" cy="39.3091" rx="5.4902" ry="5.55273" fill="#21D8E3"/>
<ellipse cx="104.628" cy="172.575" rx="5.4902" ry="5.55273" fill="#21D8E3"/>
<ellipse cx="104.628" cy="105.942" rx="5.4902" ry="5.55273" fill="#21D8E3"/>
<ellipse cx="104.628" cy="239.207" rx="5.4902" ry="5.55273" fill="#21D8E3"/>
<ellipse cx="236.392" cy="5.99273" rx="5.4902" ry="5.55273" fill="#21D8E3"/>
<ellipse cx="236.392" cy="139.258" rx="5.4902" ry="5.55273" fill="#21D8E3"/>
<ellipse cx="236.392" cy="72.6255" rx="5.4902" ry="5.55273" fill="#21D8E3"/>
<ellipse cx="236.392" cy="205.891" rx="5.4902" ry="5.55273" fill="#21D8E3"/>
<ellipse cx="236.392" cy="39.3091" rx="5.4902" ry="5.55273" fill="#21D8E3"/>
<ellipse cx="236.392" cy="172.575" rx="5.4902" ry="5.55273" fill="#21D8E3"/>
<ellipse cx="236.392" cy="105.942" rx="5.4902" ry="5.55273" fill="#21D8E3"/>
<ellipse cx="236.392" cy="239.207" rx="5.4902" ry="5.55273" fill="#21D8E3"/>
</svg>
