<svg width="177" height="313" viewBox="0 0 177 313" fill="none" xmlns="http://www.w3.org/2000/svg">
<ellipse cx="6.00655" cy="6.48473" rx="5.4902" ry="5.55273" fill="#4969F8"/>
<ellipse cx="6.00655" cy="139.75" rx="5.4902" ry="5.55273" fill="#4969F8"/>
<ellipse cx="6.00655" cy="73.1174" rx="5.4902" ry="5.55273" fill="#4969F8"/>
<ellipse cx="6.00655" cy="206.383" rx="5.4902" ry="5.55273" fill="#4969F8"/>
<ellipse cx="6.00655" cy="273.201" rx="5.4902" ry="5.55273" fill="#4969F8"/>
<ellipse cx="6.00655" cy="39.8011" rx="5.4902" ry="5.55273" fill="#4969F8"/>
<ellipse cx="6.00655" cy="173.067" rx="5.4902" ry="5.55273" fill="#4969F8"/>
<ellipse cx="6.00655" cy="106.434" rx="5.4902" ry="5.55273" fill="#4969F8"/>
<ellipse cx="6.00655" cy="239.699" rx="5.4902" ry="5.55273" fill="#4969F8"/>
<ellipse cx="6.00655" cy="306.517" rx="5.4902" ry="5.55273" fill="#4969F8"/>
<ellipse cx="137.771" cy="6.48473" rx="5.4902" ry="5.55273" fill="#4969F8"/>
<ellipse cx="137.771" cy="139.75" rx="5.4902" ry="5.55273" fill="#4969F8"/>
<ellipse cx="137.771" cy="73.1174" rx="5.4902" ry="5.55273" fill="#4969F8"/>
<ellipse cx="137.771" cy="206.383" rx="5.4902" ry="5.55273" fill="#4969F8"/>
<ellipse cx="137.771" cy="273.201" rx="5.4902" ry="5.55273" fill="#4969F8"/>
<ellipse cx="137.771" cy="39.8011" rx="5.4902" ry="5.55273" fill="#4969F8"/>
<ellipse cx="137.771" cy="173.067" rx="5.4902" ry="5.55273" fill="#4969F8"/>
<ellipse cx="137.771" cy="106.434" rx="5.4902" ry="5.55273" fill="#4969F8"/>
<ellipse cx="137.771" cy="239.699" rx="5.4902" ry="5.55273" fill="#4969F8"/>
<ellipse cx="137.771" cy="306.517" rx="5.4902" ry="5.55273" fill="#4969F8"/>
<ellipse cx="71.8889" cy="6.48473" rx="5.4902" ry="5.55273" fill="#4969F8"/>
<ellipse cx="71.8889" cy="139.75" rx="5.4902" ry="5.55273" fill="#4969F8"/>
<ellipse cx="71.8889" cy="73.1174" rx="5.4902" ry="5.55273" fill="#4969F8"/>
<ellipse cx="71.8889" cy="206.383" rx="5.4902" ry="5.55273" fill="#4969F8"/>
<ellipse cx="71.8889" cy="273.201" rx="5.4902" ry="5.55273" fill="#4969F8"/>
<ellipse cx="71.8889" cy="39.8011" rx="5.4902" ry="5.55273" fill="#4969F8"/>
<ellipse cx="71.8889" cy="173.067" rx="5.4902" ry="5.55273" fill="#4969F8"/>
<ellipse cx="71.8889" cy="106.434" rx="5.4902" ry="5.55273" fill="#4969F8"/>
<ellipse cx="71.8889" cy="239.699" rx="5.4902" ry="5.55273" fill="#4969F8"/>
<ellipse cx="71.8889" cy="306.517" rx="5.4902" ry="5.55273" fill="#4969F8"/>
<ellipse cx="38.9477" cy="6.48473" rx="5.4902" ry="5.55273" fill="#4969F8"/>
<ellipse cx="38.9477" cy="139.75" rx="5.4902" ry="5.55273" fill="#4969F8"/>
<ellipse cx="38.9477" cy="73.1174" rx="5.4902" ry="5.55273" fill="#4969F8"/>
<ellipse cx="38.9477" cy="206.383" rx="5.4902" ry="5.55273" fill="#4969F8"/>
<ellipse cx="38.9477" cy="273.201" rx="5.4902" ry="5.55273" fill="#4969F8"/>
<ellipse cx="38.9477" cy="39.8011" rx="5.4902" ry="5.55273" fill="#4969F8"/>
<ellipse cx="38.9477" cy="173.067" rx="5.4902" ry="5.55273" fill="#4969F8"/>
<ellipse cx="38.9477" cy="106.434" rx="5.4902" ry="5.55273" fill="#4969F8"/>
<ellipse cx="38.9477" cy="239.699" rx="5.4902" ry="5.55273" fill="#4969F8"/>
<ellipse cx="38.9477" cy="306.517" rx="5.4902" ry="5.55273" fill="#4969F8"/>
<ellipse cx="170.712" cy="6.48473" rx="5.4902" ry="5.55273" fill="#4969F8"/>
<ellipse cx="170.712" cy="139.75" rx="5.4902" ry="5.55273" fill="#4969F8"/>
<ellipse cx="170.712" cy="73.1174" rx="5.4902" ry="5.55273" fill="#4969F8"/>
<ellipse cx="170.712" cy="206.383" rx="5.4902" ry="5.55273" fill="#4969F8"/>
<ellipse cx="170.712" cy="273.201" rx="5.4902" ry="5.55273" fill="#4969F8"/>
<ellipse cx="170.712" cy="39.8011" rx="5.4902" ry="5.55273" fill="#4969F8"/>
<ellipse cx="170.712" cy="173.067" rx="5.4902" ry="5.55273" fill="#4969F8"/>
<ellipse cx="170.712" cy="106.434" rx="5.4902" ry="5.55273" fill="#4969F8"/>
<ellipse cx="170.712" cy="239.699" rx="5.4902" ry="5.55273" fill="#4969F8"/>
<ellipse cx="170.712" cy="306.517" rx="5.4902" ry="5.55273" fill="#4969F8"/>
<ellipse cx="104.83" cy="6.48473" rx="5.4902" ry="5.55273" fill="#4969F8"/>
<ellipse cx="104.83" cy="139.75" rx="5.4902" ry="5.55273" fill="#4969F8"/>
<ellipse cx="104.83" cy="73.1174" rx="5.4902" ry="5.55273" fill="#4969F8"/>
<ellipse cx="104.83" cy="206.383" rx="5.4902" ry="5.55273" fill="#4969F8"/>
<ellipse cx="104.83" cy="273.201" rx="5.4902" ry="5.55273" fill="#4969F8"/>
<ellipse cx="104.83" cy="39.8011" rx="5.4902" ry="5.55273" fill="#4969F8"/>
<ellipse cx="104.83" cy="173.067" rx="5.4902" ry="5.55273" fill="#4969F8"/>
<ellipse cx="104.83" cy="106.434" rx="5.4902" ry="5.55273" fill="#4969F8"/>
<ellipse cx="104.83" cy="239.699" rx="5.4902" ry="5.55273" fill="#4969F8"/>
<ellipse cx="104.83" cy="306.517" rx="5.4902" ry="5.55273" fill="#4969F8"/>
</svg>
