<svg width="132" height="132" viewBox="0 0 132 132" fill="none" xmlns="http://www.w3.org/2000/svg">
<path d="M127.315 3.73851C125.346 3.73851 123.049 3.73851 121.08 3.73851C107.625 4.39483 94.8272 7.34829 82.6852 13.2552C67.918 20.1466 55.4479 29.9914 45.603 43.1178C38.7117 51.9782 33.7892 61.823 30.1795 72.3242C29.8513 72.9805 30.1795 73.3087 30.5076 73.6368C33.4611 76.5903 36.4145 79.5437 39.368 82.4972C39.6961 82.8253 40.0243 83.4817 40.0243 84.138C40.0243 84.7943 39.6961 85.4506 39.0398 85.7788C38.3835 86.107 37.399 86.1069 37.0708 85.4506C35.43 83.8098 34.1174 82.4972 32.4766 80.8564C30.5076 78.8874 28.8668 76.9184 26.8979 75.2776C26.2415 74.6213 25.9134 73.6368 26.2415 72.6524C30.5076 59.8541 36.7427 48.0403 45.603 37.5391C54.4634 26.7098 65.2927 18.1776 77.4347 11.9425C88.5921 6.03564 100.734 2.42587 113.204 0.785061C118.455 0.128739 123.705 -0.199422 128.956 0.128739C130.597 0.128739 130.925 0.785061 131.253 2.42587C131.909 23.7563 126.659 43.446 115.173 61.823C103.688 79.8719 87.9358 93.3265 68.2462 101.859C65.2927 103.171 62.0111 104.156 58.7295 105.468C57.745 105.797 57.0887 105.797 56.4324 104.812C53.1507 101.531 49.541 97.9208 46.2594 94.6391C45.603 93.9828 45.2749 92.9983 45.9312 92.0139C46.5875 91.0294 47.9002 91.0294 48.8846 92.0139C51.8381 94.9673 54.7915 97.9208 57.745 100.874C58.4013 101.531 58.7295 101.531 59.3858 101.202C73.8249 96.28 86.6232 88.4041 97.4525 77.9029C110.251 65.4328 118.783 50.6656 123.705 33.9293C126.331 24.7408 127.643 15.2242 127.643 5.37932C127.643 4.72299 127.315 4.39483 127.315 3.73851Z" fill="#FEC536"/>
<path d="M109.266 42.1333C109.266 53.2908 100.406 62.1511 89.2485 62.1511C78.0911 62.1511 69.2307 53.2908 69.2307 42.1333C69.2307 31.304 78.0911 22.1155 88.9204 22.1155C100.406 22.1155 109.266 30.9758 109.266 42.1333ZM105.328 42.4615C105.328 33.273 98.1089 26.0534 88.9204 26.0534C79.7319 26.0534 72.5123 33.273 72.5123 42.4615C72.5123 51.65 79.7319 58.8695 88.9204 58.8695C98.1089 58.5414 105.328 51.3218 105.328 42.4615Z" fill="#FEC536"/>
<path d="M59.0579 126.142C61.355 124.83 63.6521 123.189 65.6211 121.548C72.1843 115.641 75.7941 108.422 77.4349 99.8894C77.7631 98.5767 78.4194 97.9204 79.4039 97.9204C80.7165 97.9204 81.3728 98.9049 81.3728 100.218C81.0447 101.858 80.7165 103.827 80.0602 105.468C76.4504 116.626 69.8872 124.83 59.7142 130.408C57.4171 131.721 56.4326 131.065 56.1044 128.768C54.7918 121.876 53.4791 114.657 52.1665 107.765C52.1665 107.109 52.1665 106.453 52.1665 106.124C52.4947 105.468 53.151 105.14 54.1355 105.14C54.7918 105.14 55.4481 105.796 55.7763 106.453C56.1044 108.422 56.4326 110.391 57.0889 112.688C57.4171 117.282 58.4016 121.548 59.0579 126.142Z" fill="#FEC536"/>
<path d="M4.91118 71.9961C6.88014 72.3242 8.84911 72.6524 10.4899 72.9805C15.0842 73.965 19.6784 74.6213 23.9445 75.6058C24.2727 75.6058 24.2727 75.6058 24.6008 75.6058C25.5853 75.934 26.2416 76.9185 25.9135 77.903C25.5853 78.8874 24.929 79.5438 23.6164 79.2156C20.9911 78.5593 18.0376 78.2311 15.4123 77.5748C11.1462 76.5903 6.88014 75.934 2.28589 74.9495C1.95773 74.9495 1.95773 74.9495 1.62956 74.9495C-0.011241 74.6213 -0.339402 73.6369 0.31692 71.9961C2.28589 68.3863 4.58301 64.7765 7.53646 61.8231C13.7715 55.2598 21.3192 51.6501 29.8514 49.6811C30.1796 49.6811 30.5077 49.6811 30.5077 49.3529C31.4922 49.0248 32.4767 49.6811 32.8049 50.6656C33.133 51.6501 32.4767 52.6346 31.1641 52.9627C29.1951 53.619 26.898 53.9472 24.929 54.6035C16.3968 57.557 9.83359 62.8076 4.91118 70.3553C5.23934 71.3397 5.23934 71.6679 4.91118 71.9961Z" fill="#FEC536"/>
<path d="M28.2104 101.203C28.5386 100.874 28.8668 100.218 29.1949 99.8899C35.43 93.6548 41.3369 87.7479 47.572 81.5129C49.8691 79.2157 51.838 77.2468 54.1352 74.9496C55.1197 73.9652 56.1041 73.9652 57.0886 74.6215C57.7449 75.2778 57.7449 76.5904 56.7605 77.5749C49.5409 84.7945 42.3214 92.3422 34.7737 99.5617C33.7892 100.546 32.8047 101.859 31.4921 102.843C30.8357 103.5 30.1794 103.5 29.5231 103.171C28.5386 102.843 28.2104 102.187 28.2104 101.203Z" fill="#FEC536"/>
<path d="M19.6784 109.735C20.3348 110.063 20.9911 110.391 21.3192 111.047C21.6474 111.704 21.3192 112.36 20.9911 113.016C20.6629 113.344 20.0066 114.001 19.6784 114.657C15.7405 118.595 11.8026 122.861 7.53647 126.799C6.88015 127.127 6.55199 127.455 5.89567 127.455C5.23934 127.455 4.58302 127.127 4.25486 126.471C3.9267 125.486 3.9267 124.83 4.58302 124.174C7.20831 121.548 9.8336 118.923 12.4589 116.298C14.4279 114.329 16.0687 112.688 18.0376 110.719C18.694 110.391 19.0221 110.063 19.6784 109.735Z" fill="#FEC536"/>
<path d="M16.7248 96.28C18.3656 96.28 19.3501 97.9208 18.6938 98.9053C18.3656 99.2335 18.3656 99.5616 18.0374 99.8898C13.7713 104.156 9.50524 108.422 5.23915 112.688L4.91099 113.016C3.9265 113.673 2.94202 114.001 2.2857 113.016C1.62938 112.36 1.62938 111.047 2.2857 110.391C5.56731 107.109 8.84892 103.828 12.1305 100.546C13.4432 99.2335 14.4277 98.249 15.7403 97.2645C16.0685 96.6082 16.7248 96.28 16.7248 96.28Z" fill="#FEC536"/>
<path d="M35.1019 114.657C35.1019 114.985 34.7737 115.314 34.4455 115.97C29.8513 120.564 25.5852 124.83 20.9909 129.425C20.0065 130.409 19.022 130.409 18.0375 129.425C17.3812 128.768 17.3812 127.456 18.3657 126.799C22.9599 122.205 27.226 117.939 31.8203 113.345C32.4766 112.688 33.1329 112.36 34.1174 112.688C34.7737 113.016 35.1019 113.345 35.1019 114.657Z" fill="#FEC536"/>
</svg>
