<svg width="108" height="131" viewBox="0 0 108 131" fill="none" xmlns="http://www.w3.org/2000/svg">
<path d="M43.317 89.9159C42.0044 90.2441 41.0199 90.5722 40.0354 91.2286C38.7228 89.2596 37.7384 86.9625 36.4257 85.3217C34.1286 82.0401 31.5033 79.0866 29.2061 75.805C25.5964 70.8826 22.6429 65.9602 21.3303 59.7251C18.3769 44.3015 26.909 29.2061 41.6762 23.2992C61.0377 15.4233 83.3527 28.5498 86.3062 49.2239C87.6188 58.7406 84.6653 66.6165 79.4147 74.1642C77.1176 77.4458 74.1642 80.7274 71.8671 84.3372C70.2263 86.6343 69.2418 88.9314 67.601 91.2286C66.9447 92.213 66.2883 93.1975 65.3039 93.5257C57.7562 96.4791 50.2085 99.1044 42.6608 101.73C41.6763 102.058 41.0199 101.73 40.6918 101.073C40.3636 100.089 40.3637 99.1044 41.3481 98.7763C42.0045 98.4481 42.6607 98.1199 43.317 98.1199C49.8803 95.8228 56.4435 93.5257 63.0067 90.9004C63.663 90.5722 64.3193 89.9159 64.6475 89.2596C67.2728 84.3372 70.5545 80.3993 73.8361 75.805C77.1177 71.5389 80.0711 67.601 81.3837 62.3504C84.6653 51.8492 82.3682 42.6607 75.1487 34.7849C66.9447 25.5963 56.4436 22.6429 44.6298 26.2527C32.816 29.8624 26.2527 38.0665 23.9556 50.2084C22.3147 58.7406 25.2682 65.9602 30.1906 72.5234C33.144 76.4613 36.0975 80.3993 39.051 84.3372C41.0199 85.6498 42.0044 87.6188 43.317 89.9159Z" fill="#FEC536"/>
<path d="M41.6763 122.404C41.3482 122.076 40.6919 121.747 40.6919 121.091C40.6919 120.435 41.0201 119.778 41.3483 119.122C41.3483 118.794 42.0045 118.794 42.3327 118.794C49.5522 116.169 57.1 113.543 64.3195 110.918C65.9603 110.262 66.6166 110.59 66.9448 111.574C67.2729 112.559 66.6166 113.543 65.304 114.2C57.7563 116.825 50.5368 119.45 42.9891 122.404C42.6609 122.076 42.3327 122.076 41.6763 122.404Z" fill="#FEC536"/>
<path d="M41.6763 111.575C41.3482 111.247 40.6919 110.919 40.6919 110.262C40.6919 109.606 41.0201 108.95 41.3483 108.293C41.3483 107.965 42.0045 107.965 42.3327 107.965C49.5522 105.34 57.1 102.715 64.3195 100.089C65.9603 99.4329 66.6166 99.7611 66.9448 100.746C67.2729 101.73 66.9448 102.715 65.304 103.371C57.7563 105.996 50.5368 108.95 42.9891 111.575C42.6609 111.575 42.3327 111.575 41.6763 111.575Z" fill="#FEC536"/>
<path d="M65.3038 120.763C63.0067 128.639 50.2084 133.233 42.3325 128.967C49.8802 126.342 57.4279 123.388 65.3038 120.763Z" fill="#FEC536"/>
<path d="M55.4591 5.9069C55.4591 7.21954 55.4591 8.53219 55.4591 9.84483C55.4591 10.8293 54.8028 11.4856 53.8183 11.4856C52.8338 11.4856 52.1775 10.8293 52.1775 9.84483C52.1775 7.21954 52.1775 4.59426 52.1775 1.64081C52.1775 0.656322 52.8338 0 53.8183 0C54.8028 0 55.4591 0.656322 55.4591 1.64081C55.4591 2.95345 55.4591 4.59425 55.4591 5.9069Z" fill="#FEC536"/>
<path d="M5.90686 51.8496C7.2195 51.8496 8.53219 51.8496 9.84483 51.8496C11.1575 51.8496 11.8138 52.5059 11.8138 53.4904C11.8138 54.4749 11.1575 55.1312 9.84483 55.1312C7.21954 55.1312 4.59427 55.1312 1.96899 55.1312C0.656342 55.1312 0 54.4749 0 53.4904C0 52.5059 0.656342 51.8496 1.96899 51.8496C3.28163 51.8496 4.59421 51.8496 5.90686 51.8496Z" fill="#FEC536"/>
<path d="M101.73 55.4593C100.417 55.4593 99.1043 55.4593 97.7917 55.4593C96.8072 55.4593 96.1509 54.803 96.1509 53.8185C96.1509 52.8341 96.8072 52.1777 97.7917 52.1777C100.417 52.1777 103.37 52.1777 105.996 52.1777C106.98 52.1777 107.637 52.8341 107.637 53.8185C107.637 54.803 106.98 55.4593 105.996 55.4593C104.355 55.4593 103.042 55.4593 101.73 55.4593Z" fill="#FEC536"/>
<path d="M16.4081 14.439C17.0644 14.7671 17.3925 15.0953 17.7207 15.4234C19.6897 17.3924 21.3305 19.0332 23.2995 21.0022C24.284 21.9867 24.284 22.643 23.2995 23.6275C22.6432 24.2838 21.6586 24.2838 20.6741 23.6275C18.7052 21.6585 16.7363 20.0177 15.0955 18.0487C14.7673 17.7206 14.4391 16.7361 14.7673 16.0798C15.0954 15.0953 16.0799 14.7671 16.4081 14.439Z" fill="#FEC536"/>
<path d="M84.9937 83.0251C85.65 83.3533 85.9782 83.6815 86.3063 84.0096C88.2753 85.6504 89.9162 87.6194 91.8851 89.2602C92.8696 90.2447 92.8696 91.2292 92.2133 91.8855C91.557 92.5418 90.5724 92.5418 89.588 91.5573C87.619 89.5884 85.9782 87.9476 84.0093 85.9786C83.6811 85.6504 83.3529 84.666 83.6811 84.0096C83.6811 83.6815 84.3374 83.3533 84.9937 83.0251Z" fill="#FEC536"/>
<path d="M92.8694 16.4081C92.5413 17.0644 92.2132 17.3926 91.885 17.7207C89.916 19.6897 88.2752 21.3305 86.3062 23.2995C85.6499 23.9558 84.6654 24.2839 83.681 23.2995C83.0246 22.6431 83.0246 21.6587 83.681 20.6742C85.6499 18.7052 87.2907 16.7362 89.2596 15.0954C89.5878 14.7673 90.5723 14.4391 91.2286 14.7673C91.8849 15.0954 92.2131 16.0799 92.8694 16.4081Z" fill="#FEC536"/>
<path d="M16.4077 92.5414C16.0795 92.2132 15.4232 91.885 15.0951 91.2287C14.7669 90.9005 15.0951 89.9161 15.0951 89.5879C17.064 87.6189 19.033 85.3218 21.3301 83.3528C21.9864 82.6965 22.9709 82.6965 23.6272 83.3528C24.2835 84.0092 24.2835 84.9936 23.6272 85.65C21.6582 87.6189 19.6893 89.5879 17.7203 91.5569C17.3922 92.2132 17.064 92.5414 16.4077 92.5414Z" fill="#FEC536"/>
</svg>
